<svg version="1.1" id="Layer_1" xmlns="http://www.w3.org/2000/svg" xmlns:xlink="http://www.w3.org/1999/xlink" x="0px" y="0px"
	 width="100%" viewBox="0 0 928 928" enable-background="new 0 0 928 928" xml:space="preserve">
<path fill="currentColor" opacity="1.000000" stroke="none" 
	d="
M520.418457,617.550476 
	C522.062317,604.079590 523.598145,591.048035 525.163757,578.019958 
	C525.458862,575.564331 526.555725,572.713257 524.314392,570.969971 
	C521.829712,569.037354 519.638123,571.421936 517.610535,572.688782 
	C511.115814,576.746704 504.724304,580.969727 498.235870,585.038025 
	C490.005127,590.198792 483.325104,589.629028 476.068787,582.948120 
	C470.064636,577.420105 464.239410,571.695923 458.390442,566.001648 
	C438.676239,546.808777 417.009857,529.836670 396.505585,511.543243 
	C393.522491,508.881805 390.446777,506.311920 387.608612,503.502960 
	C382.393341,498.341461 381.766785,493.369385 385.078186,486.749298 
	C388.859406,479.190002 392.770477,471.677429 395.257568,463.341248 
	C392.571381,461.435638 389.932404,462.066040 387.404755,462.582886 
	C361.362915,467.907593 335.334839,473.299591 309.289795,478.608429 
	C307.354248,479.002930 305.299988,479.132874 303.330872,478.985504 
	C297.246368,478.530090 294.476776,473.477234 297.726105,467.774231 
	C301.008972,462.012390 304.921875,456.570953 308.921600,451.262543 
	C331.259216,421.615997 353.714600,392.058319 376.104919,362.451447 
	C378.310272,359.535309 380.366455,356.505188 382.458801,353.504913 
	C390.179779,342.433533 401.635529,339.371948 414.198303,338.679749 
	C433.939362,337.591980 453.654602,336.232727 473.266998,333.611511 
	C476.521118,333.176636 478.702881,331.587067 480.629364,329.076294 
	C501.983978,301.244904 525.864807,275.735504 552.084961,252.465103 
	C586.360840,222.045212 623.079529,195.104095 665.029541,176.049622 
	C689.766418,164.813705 715.572388,156.610611 742.077942,150.612961 
	C747.413147,149.405716 752.629883,147.757217 758.198059,147.693115 
	C762.662048,147.641708 764.863586,149.374725 765.384705,153.982010 
	C767.002747,168.285950 766.568848,182.610626 765.840881,196.905106 
	C764.961731,214.166321 763.280151,231.377579 760.463562,248.449127 
	C757.579224,265.930725 751.745911,282.608643 745.667664,299.123779 
	C734.490845,329.492554 719.552734,358.100403 702.892334,385.784943 
	C687.157104,411.932129 669.292419,436.577118 649.231445,459.600281 
	C647.483826,461.605957 645.799133,463.773956 643.693726,465.340515 
	C637.058472,470.277649 635.833984,476.818481 636.290100,484.668396 
	C637.429626,504.280212 638.230835,523.919250 638.123718,543.579102 
	C638.095581,548.739868 638.285217,553.879456 638.909180,559.033325 
	C639.983276,567.906189 637.729187,575.683899 631.177917,582.282532 
	C598.560242,615.135925 566.073120,648.119019 533.573242,681.089172 
	C529.863831,684.852234 526.201538,688.228699 520.234802,687.384277 
	C515.658447,686.736694 513.037659,684.333984 512.667786,679.703796 
	C512.251648,674.494751 513.352783,669.398621 513.978882,664.304321 
	C515.879456,648.840271 518.177551,633.425171 520.418457,617.550476 
M588.056152,305.555176 
	C586.773315,307.497223 585.357788,309.365417 584.228516,311.392975 
	C575.275696,327.468048 579.538025,344.868530 591.286377,355.640686 
	C601.824585,365.303192 614.895508,368.116455 629.410522,364.021881 
	C650.502075,358.072144 662.546692,328.834320 649.598145,308.687286 
	C634.428345,285.084076 605.546936,284.083618 588.056152,305.555176 
z"/>
<path fill="currentColor" opacity="1.000000" stroke="none" 
	d="
M236.635406,652.557861 
	C261.533630,639.149414 283.964752,622.765076 306.091034,605.859741 
	C330.527435,587.189514 352.418640,565.812927 373.813171,543.858704 
	C374.278046,543.381653 374.726013,542.887024 375.207794,542.427856 
	C381.022614,536.885437 390.515320,538.910767 393.766602,546.444763 
	C394.965546,549.223083 393.852661,551.533630 392.093750,553.793396 
	C384.184723,563.953918 375.033813,572.950562 365.698730,581.737610 
	C338.123474,607.694031 309.201813,632.016174 277.109283,652.276978 
	C244.806595,672.670593 211.523102,691.271912 174.845139,702.722656 
	C145.027878,712.031494 114.772781,714.584534 84.636765,704.211121 
	C63.247070,696.848328 44.411900,685.301880 32.135929,665.604004 
	C22.973560,650.902222 19.941584,635.001160 22.950695,617.380310 
	C26.060297,599.171082 31.227362,581.862488 38.817883,565.147766 
	C47.885365,545.180603 61.243366,528.268494 76.110672,512.387939 
	C111.027321,475.091705 152.042511,446.242188 197.847412,423.916992 
	C221.660400,412.310608 246.070007,402.167969 271.130463,393.636902 
	C281.186035,390.213837 291.354584,387.002533 301.979767,385.602478 
	C306.273773,385.036682 310.270538,385.752167 314.059998,387.644867 
	C320.519928,390.871307 320.804016,397.363312 314.739807,401.380493 
	C312.060760,403.155182 309.064301,404.258484 305.998718,404.978821 
	C268.482544,413.793762 233.008209,428.105469 199.216537,446.295959 
	C166.581436,463.863922 136.206863,484.909729 109.114403,510.424988 
	C88.229973,530.093628 70.186234,552.002625 57.565098,577.886719 
	C49.924297,593.556763 45.432850,610.371277 45.455490,627.884094 
	C45.482567,648.831421 56.782841,663.562378 73.845055,674.273499 
	C88.389435,683.404053 104.250450,687.707947 121.610802,687.948914 
	C147.842010,688.313049 172.116119,680.799622 196.107437,671.573853 
	C209.950623,666.250488 223.426926,660.114746 236.635406,652.557861 
z"/>
<path fill="currentColor" opacity="1.000000" stroke="none" 
	d="
M885.866699,415.121368 
	C874.561523,390.707794 854.654663,376.186371 831.461060,365.426788 
	C814.202576,357.420532 796.145813,351.662750 777.479614,347.972534 
	C771.133362,346.717957 764.661194,346.074615 758.230652,345.280762 
	C754.197266,344.782837 752.871704,342.993286 754.862854,339.240173 
	C755.018616,338.946503 755.143188,338.635345 755.269348,338.327026 
	C760.382324,325.834534 760.508362,324.980835 773.706726,326.932159 
	C818.694275,333.583252 859.751282,348.836426 891.167542,383.716461 
	C903.759399,397.696777 911.144287,414.281677 914.392273,432.667999 
	C920.079346,464.861023 911.806091,494.373413 895.991272,522.100342 
	C874.198425,560.308350 843.128601,589.920654 807.901367,615.522827 
	C769.154053,643.683472 728.323914,668.522949 685.352112,689.585938 
	C653.228394,705.331665 620.191650,719.160889 586.620422,731.644409 
	C558.209656,742.208862 529.294922,751.096069 499.734314,757.737122 
	C474.921906,763.311523 449.956787,768.413879 424.642731,770.951782 
	C400.991394,773.322998 377.223633,775.139038 353.427704,772.242126 
	C352.129150,772.083984 350.696686,772.223267 349.975800,770.393311 
	C352.058777,767.455383 355.406891,768.999390 358.084717,768.435669 
	C373.828796,765.121277 389.606018,761.959717 405.397156,758.874878 
	C427.073730,754.640259 448.718231,750.142212 470.030212,744.427673 
	C497.139099,737.158752 524.180725,729.621460 550.825684,720.646790 
	C589.800171,707.519348 627.953857,692.430969 665.522522,675.745300 
	C693.240295,663.434631 720.453735,650.188293 746.211243,634.130127 
	C784.398682,610.322693 819.772583,582.922791 850.059509,549.513062 
	C867.000488,530.825195 881.486511,510.143158 889.729187,486.007233 
	C897.859802,462.199066 896.356262,438.496857 885.866699,415.121368 
z"/>
<path fill="currentColor" opacity="1.000000" stroke="none" 
	d="
M271.960083,736.018005 
	C250.829422,746.532349 228.897980,752.941345 205.683899,756.089539 
	C205.639099,753.169434 207.464615,753.019958 208.644608,752.430725 
	C250.630722,731.462952 288.624054,704.707275 323.841400,673.780029 
	C348.130493,652.449829 372.395447,631.129761 394.603363,607.582703 
	C403.286163,598.376404 412.138123,589.327881 420.999420,580.292236 
	C426.882416,574.293579 429.313202,574.259216 435.763214,579.640442 
	C443.605042,586.182861 443.685120,586.257935 436.690948,593.719604 
	C407.177429,625.206116 377.079712,656.110596 344.001831,683.920349 
	C329.987823,695.702454 316.678467,708.331665 301.737549,719.015442 
	C292.477783,725.636902 282.544891,731.001160 271.960083,736.018005 
z"/>
</svg>
